<svg height="480pt" viewBox="0 0 480 480.08557" width="480pt" xmlns="http://www.w3.org/2000/svg"><path d="m152.050781 248.070312c0 4.417969 3.582031 8 8 8h64c4.417969 0 8-3.582031 8-8v-64c-.070312-18.0625-12.242187-33.835937-29.695312-38.488281 18.449219-18.847656 18.234375-49.054687-.484375-67.636719-18.714844-18.582031-48.921875-18.582031-67.636719 0-18.71875 18.582032-18.933594 48.789063-.484375 67.636719-17.457031 4.652344-29.625 20.425781-29.699219 38.488281v27.503907c0 4.417969 3.582031 8 8 8s8-3.582031 8-8v-27.503907c0-13.253906 10.746094-24 24-24h48c13.257813 0 24 10.746094 24 24v56h-56c-4.417969 0-8 3.582032-8 8zm16-168c17.675781 0 32 14.328126 32 32 0 17.671876-14.324219 32-32 32-17.671875 0-32-14.328124-32-32 0-17.671874 14.328125-32 32-32zm0 0"/><path d="m192.050781 200.070312c4.417969 0 8-3.582031 8-8 0-4.417968-3.582031-8-8-8h-16c-4.417969 0-8 3.582032-8 8 0 4.417969 3.582031 8 8 8zm0 0"/><path d="m473.019531 405.160156-96.167969-96.167968c-7.289062-6.925782-18.054687-8.726563-27.199218-4.546876l-42.398438-42.398437c50.785156-75.175781 32.714844-177.09375-40.824218-230.222656-73.539063-53.132813-175.976563-38.28125-231.398438 33.546875-55.417969 71.828125-43.800781 174.683594 26.246094 232.339844 3.410156 2.808593 8.453125 2.324218 11.261718-1.089844 2.8125-3.410156 2.324219-8.453125-1.085937-11.261719-64.4375-52.777344-74.476563-147.550781-22.519531-212.652344 51.953125-65.101562 146.589844-76.339843 212.347656-25.214843 65.753906 51.125 78.191406 145.613281 27.90625 212.011718-1.917969 2.542969-3.871094 5.046875-5.945312 7.453125-.175782.21875-.375.410157-.558594.625-4.652344 5.355469-9.675782 10.378907-15.03125 15.03125-.25.21875-.480469.457031-.734375.671875-2.402344 2.042969-4.851563 4-7.355469 5.867188-26.296875 20.042968-58.445312 30.90625-91.511719 30.917968-2.535156 0-5.054687-.128906-7.558593-.261718-4.417969-.246094-8.195313 3.140625-8.441407 7.558594-.242187 4.417968 3.144531 8.195312 7.5625 8.441406 2.808594.148437 5.597657.285156 8.4375.285156 33.496094.035156 66.230469-9.996094 93.953125-28.800781l46.96875 46.96875c3.125 3.125 8.1875 3.125 11.3125 0l33.941406-33.941407c3.171876-3.015624 8.148438-3.015624 11.320313 0l96.160156 96.175782c3.117188 3.121094 3.117188 8.179687 0 11.300781l-33.933593 33.945313c-1.5 1.503906-3.539063 2.347656-5.660157 2.347656-2.125 0-4.160156-.84375-5.660156-2.347656l-63.023437-63.023438c-3.140626-3.03125-8.128907-2.988281-11.214844.097656-3.085938 3.085938-3.128906 8.074219-.097656 11.214844l63.023437 63.023438c9.371094 9.375 24.570313 9.375 33.945313 0l33.933593-33.9375c9.375-9.371094 9.375-24.570313 0-33.941407zm-175.457031-130.203125 39.691406 39.691407-22.625 22.628906-39.695312-39.695313c8.238281-6.808593 15.816406-14.386719 22.628906-22.625zm0 0"/><path d="m168.050781 288.070312c-4.417969 0-8 3.582032-8 8 0 4.417969 3.582031 8 8 8 42.105469.136719 81.882813-19.296874 107.648438-52.597656 25.769531-33.296875 34.601562-76.679687 23.90625-117.402344-1.105469-4.277343-5.46875-6.851562-9.75-5.746093-4.277344 1.101562-6.851563 5.46875-5.746094 9.746093 9.464844 35.929688 1.6875 74.222657-21.050781 103.609376-22.738282 29.390624-57.847656 46.53125-95.007813 46.390624zm0 0"/><path d="m233.851562 49.070312c-60.488281-33.53125-136.515624-16.289062-176.621093 40.058594-40.105469 56.34375-31.5 133.824219 19.988281 179.996094 2.121094 1.964844 5.132812 2.632812 7.882812 1.75 2.746094-.882812 4.808594-3.175781 5.390626-6.003906.582031-2.832032-.40625-5.753906-2.585938-7.648438-45.390625-40.75-52.957031-109.078125-17.585938-158.773437 35.371094-49.699219 102.414063-64.921875 155.78125-35.378907 3.863282 2.140626 8.734376.742188 10.875-3.125 2.140626-3.863281.742188-8.734374-3.125-10.875zm0 0"/><path d="m72.050781 424.070312c-4.417969 0-8 3.582032-8 8 0 4.417969 3.582031 8 8 8h48c4.417969 0 8-3.582031 8-8 0-4.417968-3.582031-8-8-8zm0 0"/><path d="m224.050781 352.070312h-88v-104c.015625-3.632812-2.421875-6.816406-5.929687-7.753906-3.507813-.941406-7.210938.601563-9.011719 3.753906l-61.699219 108h-11.359375c-13.253906 0-24 10.746094-24 24v80c0 13.253907 10.746094 24 24 24h176c13.257813 0 24-10.746093 24-24v-16c0-4.417968-3.582031-8-8-8s-8 3.582032-8 8v16c0 4.417969-3.582031 8-8 8h-176c-4.417969 0-8-3.582031-8-8v-80c0-4.417968 3.582031-8 8-8h16c2.863281.007813 5.511719-1.519531 6.945313-4l49.054687-85.871093v81.871093c0 4.417969 3.582031 8 8 8h96c4.417969 0 8 3.582032 8 8v16c0 4.417969 3.582031 8 8 8s8-3.582031 8-8v-16c0-13.253906-10.742187-24-24-24zm0 0"/><path d="m152.050781 400.070312c0-4.417968-3.582031-8-8-8h-56c-4.417969 0-8 3.582032-8 8 0 4.417969 3.582031 8 8 8h56c4.417969 0 8-3.582031 8-8zm0 0"/><path d="m216.050781 400.070312c0-4.417968-3.582031-8-8-8h-32c-4.417969 0-8 3.582032-8 8 0 4.417969 3.582031 8 8 8h32c4.417969 0 8-3.582031 8-8zm0 0"/><path d="m152.050781 440.070312h32c4.417969 0 8-3.582031 8-8 0-4.417968-3.582031-8-8-8h-32c-4.417969 0-8 3.582032-8 8 0 4.417969 3.582031 8 8 8zm0 0"/><path d="m352.050781 64.070312h72c4.417969 0 8-3.582031 8-8 0-4.417968-3.582031-8-8-8h-72c-4.417969 0-8 3.582032-8 8 0 4.417969 3.582031 8 8 8zm0 0"/><path d="m352.050781 104.070312h72c4.417969 0 8-3.582031 8-8 0-4.417968-3.582031-8-8-8h-72c-4.417969 0-8 3.582032-8 8 0 4.417969 3.582031 8 8 8zm0 0"/><path d="m424.050781 128.070312h-40c-4.417969 0-8 3.582032-8 8 0 4.417969 3.582031 8 8 8h40c4.417969 0 8-3.582031 8-8 0-4.417968-3.582031-8-8-8zm0 0"/><path d="m424.050781 168.070312h-40c-4.417969 0-8 3.582032-8 8 0 4.417969 3.582031 8 8 8h40c4.417969 0 8-3.582031 8-8 0-4.417968-3.582031-8-8-8zm0 0"/><path d="m368.050781 232.070312c-4.417969 0-8 3.582032-8 8 0 4.417969 3.582031 8 8 8h48c8.835938 0 16-7.164062 16-16v-16c0-8.835937-7.164062-16-16-16h-48c-4.417969 0-8 3.582032-8 8 0 4.417969 3.582031 8 8 8h48v16zm0 0"/></svg>