<svg xmlns="http://www.w3.org/2000/svg" viewBox="0 0 52.974 52.974"><path d="M49.467 3.51c-4.677-4.679-12.291-4.681-16.97 0l-9.192 9.192c-.391.391-.391 1.023 0 1.414s1.023.391 1.414 0l9.192-9.192c1.88-1.88 4.391-2.915 7.07-2.915 2.681 0 5.191 1.036 7.071 2.916s2.916 4.391 2.916 7.071c0 2.68-1.036 5.19-2.916 7.07L36.033 31.088c-3.898 3.898-10.244 3.898-14.143 0-.391-.391-1.023-.391-1.414 0s-.391 1.023 0 1.414c2.34 2.339 5.412 3.509 8.485 3.509s6.146-1.17 8.485-3.509L49.467 20.48c2.258-2.258 3.502-5.271 3.502-8.485 0-3.214-1.244-6.227-3.502-8.485z"/><path d="M26.84 40.279l-7.778 7.778c-1.88 1.88-4.391 2.916-7.071 2.916-2.68 0-5.19-1.036-7.071-2.916-3.898-3.898-3.898-10.243 0-14.142l11.314-11.314c3.899-3.898 10.244-3.896 14.142 0 .391.391 1.023.391 1.414 0s.391-1.023 0-1.414c-4.677-4.679-12.291-4.681-16.97 0L3.505 32.502C1.247 34.76.004 37.773.004 40.987c0 3.214 1.244 6.227 3.502 8.484s5.271 3.502 8.484 3.502c3.215 0 6.228-1.244 8.485-3.502l7.778-7.778c.391-.391.391-1.023 0-1.414s-1.022-.39-1.413 0zM33.969 44.009c-.553 0-1 .447-1 1v6c0 .553.447 1 1 1s1-.447 1-1v-6c0-.553-.447-1-1-1zM38.433 42.302c-.391-.391-1.023-.391-1.414 0s-.391 1.023 0 1.414l4.243 4.242c.195.195.451.293.707.293s.512-.098.707-.293c.391-.391.391-1.023 0-1.414l-4.243-4.242zM44.969 38.009h-6c-.553 0-1 .447-1 1s.447 1 1 1h6c.553 0 1-.447 1-1s-.447-1-1-1zM15.969 11.009c.553 0 1-.447 1-1v-6c0-.553-.447-1-1-1s-1 .447-1 1v6c0 .553.448 1 1 1zM11.504 12.716c.195.195.451.293.707.293s.512-.098.707-.293c.391-.391.391-1.023 0-1.414L8.676 7.06c-.391-.391-1.023-.391-1.414 0s-.391 1.023 0 1.414l4.242 4.242zM4.969 17.009h6c.553 0 1-.447 1-1s-.447-1-1-1h-6c-.553 0-1 .447-1 1s.448 1 1 1z"/></svg>