<svg id="Layer_5" enable-background="new 0 0 64 64" height="512" viewBox="0 0 64 64" width="512" xmlns="http://www.w3.org/2000/svg"><path d="m45 7c-6.617 0-12 5.383-12 12s5.383 12 12 12 12-5.383 12-12-5.383-12-12-12zm0 22c-5.514 0-10-4.486-10-10s4.486-10 10-10 10 4.486 10 10-4.486 10-10 10z"/><path d="m45.117 10h-.234c-1.59 0-2.883 1.293-2.883 2.883 0 .12.007.24.03.407l.854 4.842c.133 1.065 1.043 1.868 2.116 1.868s1.983-.803 2.109-1.818l.869-4.939c.015-.12.022-.24.022-.36 0-1.59-1.293-2.883-2.883-2.883zm.015 7.884c-.017.133-.24.183-.271-.05l-.854-4.844c-.005-.035-.007-.071-.007-.107 0-.487.396-.883.883-.883h.234c.487 0 .883.396.883.883 0 .047-.001.064 0 .06z"/><path d="m45 22c-1.654 0-3 1.346-3 3s1.346 3 3 3 3-1.346 3-3-1.346-3-3-3zm0 4c-.551 0-1-.448-1-1s.449-1 1-1 1 .448 1 1-.449 1-1 1z"/><path d="m63 22.792v-7.584l-2.635-.62c-.333-1.16-.795-2.277-1.381-3.332l1.425-2.303-5.363-5.363-2.302 1.426c-1.057-.586-2.173-1.049-3.332-1.381l-.62-2.635h-7.584l-.62 2.635c-1.159.332-2.275.795-3.332 1.381l-2.302-1.426-5.363 5.363 1.425 2.303c-.585 1.055-1.048 2.172-1.381 3.332l-2.635.62v7.584l2.635.62c.039.136.097.265.139.399l-12.188 12.189h-6.586v-11.059c4.493-.499 8-4.316 8-8.941 0-4.963-4.038-9-9-9s-9 4.037-9 9c0 4.625 3.507 8.442 8 8.941v13.059h6.586l-9.293 9.293-.14.14-4.947 11.874c-.137.326-.206.672-.206 1.026 0 1.471 1.196 2.667 2.667 2.667.352 0 .696-.068 1.026-.205l11.875-4.948 13.432-13.433v10.586h8.059c.5 4.493 4.317 8 8.941 8 4.962 0 9-4.037 9-9 0-1.606-.428-3.112-1.168-4.418l3.875-3.875-1.414-1.414-3.653 3.653c-1.647-1.805-4.01-2.946-6.64-2.946-4.624 0-8.442 3.507-8.941 8h-6.059v-10.586l8.188-8.188c.135.043.264.101.4.14l.62 2.634h7.584l.62-2.635c1.159-.332 2.275-.795 3.332-1.381l2.302 1.426 5.363-5.363-1.425-2.303c.586-1.056 1.049-2.172 1.381-3.332zm-60-6.792c0-3.859 3.14-7 7-7s7 3.141 7 7-3.14 7-7 7-7-3.141-7-7zm44 31c2.079 0 3.943.916 5.226 2.36l-6.226 6.226-2.293-2.293-1.414 1.414 3.707 3.707 7.347-7.347c.415.893.653 1.885.653 2.933 0 3.859-3.14 7-7 7s-7-3.141-7-7 3.14-7 7-7zm-39.408 2.179 2.408.602v4.219h4.219l.602 2.408-5.646 2.353-3.935-3.935zm-3.667 11.769c-.43.178-.925-.158-.925-.615 0-.088.017-.174.051-.256l1.356-3.255 2.771 2.771zm12.617-5.904-.761-3.044h-2.367l9.293-9.293-1.414-1.414-9.293 9.293v-2.367l-3.044-.76 21.621-21.622c.144.304.275.613.438.908l-1.425 2.303 1.974 1.974-1.272 1.272 1.414 1.414 1.272-1.272 1.975 1.975 2.302-1.426c.294.163.604.294.907.438zm42.186-33.301-.146.595c-.337 1.377-.882 2.69-1.619 3.904l-.318.523 1.229 1.986-3.123 3.123-1.986-1.229-.524.318c-1.215.736-2.528 1.281-3.904 1.617l-.595.146-.534 2.274h-4.416l-.535-2.273-.595-.146c-1.375-.336-2.689-.881-3.904-1.617l-.524-.318-1.986 1.229-3.123-3.123 1.229-1.986-.318-.523c-.736-1.213-1.281-2.526-1.619-3.904l-.146-.595-2.271-.536v-4.416l2.272-.535.146-.595c.338-1.378.882-2.691 1.619-3.904l.318-.523-1.229-1.986 3.123-3.123 1.986 1.229.524-.318c1.215-.736 2.528-1.281 3.904-1.617l.595-.146.534-2.274h4.416l.535 2.273.595.146c1.375.336 2.689.881 3.904 1.617l.524.318 1.986-1.229 3.123 3.123-1.229 1.986.318.523c.736 1.213 1.281 2.526 1.619 3.904l.146.595 2.271.536v4.416z"/><path d="m13.293 20.707 1.414-1.414-3.293-3.293 3.293-3.293-1.414-1.414-3.293 3.293-3.293-3.293-1.414 1.414 3.293 3.293-3.293 3.293 1.414 1.414 3.293-3.293z"/><path d="m25.536 36.465h2v2h-2z" transform="matrix(.707 -.707 .707 .707 -18.72 29.737)"/><path d="m22.707 39.293h2v2h-2z" transform="matrix(.707 -.707 .707 .707 -21.548 28.565)"/><path d="m28.379 33.671h1.899v2h-1.899z" transform="matrix(.707 -.707 .707 .707 -15.926 30.893)"/></svg>