<?xml version="1.0" standalone="no"?>
<!DOCTYPE svg PUBLIC "-//W3C//DTD SVG 20010904//EN"
 "http://www.w3.org/TR/2001/REC-SVG-20010904/DTD/svg10.dtd">
<svg version="1.0" xmlns="http://www.w3.org/2000/svg"
 width="512.000000pt" height="512.000000pt" viewBox="0 0 512.000000 512.000000"
 preserveAspectRatio="xMidYMid meet">
<g transform="translate(0.000000,512.000000) scale(0.100000,-0.100000)"
fill="#000000" stroke="none">
<path d="M1315 5101 c-186 -54 -337 -186 -431 -376 -85 -174 -79 -52 -79-1545 l0 -1325 23 -75 c68 -216 209 -387 387 -471 129 -60 104 -59 991 -59l811 0 403 -620 c221 -341 406 -620 410 -620 7 0 322 129 328 135 4 3 -57 958-62 962 -4 4 -196 -10 -315 -23 l-53 -6 7 -111 7 -112 -64 95 c-35 52 -154233 -263 402 l-199 308 -856 0 c-568 0 -876 4 -916 11 -107 19 -191 88 -243198 l-26 56 0 1260 0 1260 27 57 c35 76 98 142 167 175 l56 28 1535 0 1535 056 -28 c69 -33 132 -99 167 -175 l27 -57 0 -1260 0 -1260 -26 -56 c-32 -68-88 -132 -143 -164 -59 -34 -138 -45 -323 -45 l-163 0 0 -205 0 -205 218 0c238 0 287 7 397 59 176 82 313 248 387 466 l23 70 3 1314 c2 1292 2 1316 -181395 -55 221 -198 410 -379 501 -139 69 -19 65 -1767 64 -1473 0 -1583 -2-1639 -18z"/>
<path d="M510 4254 c-232 -60 -423 -266 -490 -528 -20 -77 -20 -107 -20 -13230 -1407 -5 -1312 82 -1492 43 -90 62 -116 136 -191 95 -94 147 -128 262 -16766 -23 96 -26 253 -31 l177 -5 0 -258 0 -259 113 0 112 1 229 259 229 260 8030 c565 0 804 3 804 11 0 6 -20 38 -44 72 -24 34 -81 121 -126 192 l-81 130-1182 5 -1182 5 -43 23 c-61 33 -120 95 -151 161 l-26 56 0 1225 0 1225 22 47c39 85 158 188 218 188 13 0 15 21 15 138 0 75 3 167 7 205 l6 67 -34 -1 c-190 -59 -7 -89 -15z"/>
<path d="M1860 4020 l0 -120 1155 0 1155 0 0 120 0 120 -1155 0 -1155 0 0-120z"/>
<path d="M1860 3295 l0 -125 230 0 230 0 0 125 0 125 -230 0 -230 0 0 -125z"/>
<path d="M2480 3295 l0 -125 235 0 235 0 0 125 0 125 -235 0 -235 0 0 -125z"/>
<path d="M3140 3295 l0 -125 120 0 120 0 0 125 0 125 -120 0 -120 0 0 -125z"/>
<path d="M3600 3295 l0 -125 285 0 285 0 0 125 0 125 -285 0 -285 0 0 -125z"/>
<path d="M1860 2510 l0 -120 505 0 505 0 0 120 0 120 -505 0 -505 0 0 -120z"/>
<path d="M3040 2510 l0 -120 565 0 565 0 0 120 0 120 -565 0 -565 0 0 -120z"/>
</g>
</svg>
