<svg xmlns="http://www.w3.org/2000/svg" version="1.0" viewBox="0 0 512 512"><g transform="matrix(.1 0 0 -.1 0 512)"><path d="M1315 5101c-186-54-337-186-431-376-85-174-79-52-79-1545V1855l23-75c68-216 209-387 387-471 129-60 104-59 991-59h811l403-620c221-341 406-620 410-620 7 0 322 129 328 135 4 3-57 958-62 962-4 4-196-10-315-23l-53-6 7-111 7-112-64 95c-35 52-154 233-263 402l-199 308h-856c-568 0-876 4-916 11-107 19-191 88-243 198l-26 56v2520l27 57c35 76 98 142 167 175l56 28h3070l56-28c69-33 132-99 167-175l27-57V1925l-26-56c-32-68-88-132-143-164-59-34-138-45-323-45h-163v-410h218c238 0 287 7 397 59 176 82 313 248 387 466l23 70 3 1314c2 1292 2 1316-18 1395-55 221-198 410-379 501-139 69-19 65-1767 64-1473 0-1583-2-1639-18z"/><path d="M510 4254c-232-60-423-266-490-528-20-77-20-107-20-1323C0 996-5 1091 82 911c43-90 62-116 136-191 95-94 147-128 262-167 66-23 96-26 253-31l177-5V0h113l112 1 229 259 229 260h803c565 0 804 3 804 11 0 6-20 38-44 72s-81 121-126 192l-81 130-1182 5-1182 5-43 23c-61 33-120 95-151 161l-26 56v2450l22 47c39 85 158 188 218 188 13 0 15 21 15 138 0 75 3 167 7 205l6 67-34-1c-19 0-59-7-89-15zm1350-234v-120h2310v240H1860v-120zm0-725v-125h460v250h-460v-125zm620 0v-125h470v250h-470v-125zm660 0v-125h240v250h-240v-125zm460 0v-125h570v250h-570v-125z"/><path d="M1860 2510v-120h1010v240H1860v-120zm1180 0v-120h1130v240H3040v-120z"/></g></svg>