<svg height="512pt" viewBox="0 0 512 512" width="512pt" xmlns="http://www.w3.org/2000/svg"><path d="M512 452.015625V452 101.035156c0-33.082031-26.914062-60-60-60H89.816406C87.800781 18.074219 68.476562 0 45 0 20.1875 0 0 20.1875 0 45v317c0 33.085938 26.914062 60 60 60h362.023438v72.433594c0 6.363281 4.007812 12.03125 10.007812 14.144531 6.464844 2.285156 13.195312 3.40625 19.894531 3.40625 12.28125 0 24.464844-3.765625 34.753907-11.046875 15.769531-11.15625 24.925781-28.519531 25.285156-47.769531.011718-.222657.035156-.441407.035156-.667969zM45 30c8.269531 0 15 6.730469 15 15v257c-10.925781 0-21.167969 2.949219-30 8.070312V45c0-8.269531 6.730469-15 15-15zM30 362c0-16.542969 13.457031-30 30-30 3.410156 0 6.769531.574219 9.984375 1.710938 7.8125 2.753906 16.378906-1.34375 19.136719-9.152344.570312-1.613282.832031-3.257813.84375-4.875.011718-.230469.035156-.457032.035156-.6875V71.035156h362c16.542969 0 30 13.457032 30 30v299.035156c-8.234375-4.773437-17.695312-7.648437-27.792969-8.015624-.359375-.027344-.722656-.054688-1.089843-.054688H60c-16.542969 0-30-13.457031-30-30zm439.351562 114.449219c-5.210937 3.6875-11.207031 5.578125-17.296874 5.578125h-.03125V422h.035156c16.507812.035156 29.929687 13.46875 29.941406 29.980469v.035156c-.007812 9.84375-4.613281 18.75-12.648438 24.433594zm0 0"/><path d="M391.4375 203.507812l-27.164062-10.5625 11.738281-26.675781c2.488281-5.660156 1.25-12.273437-3.125-16.644531l-20.519531-20.519531c-4.375-4.375-10.984376-5.613281-16.644532-3.121094l-26.675781 11.738281-10.5625-27.160156c-2.242187-5.765625-7.792969-9.566406-13.980469-9.566406h-29.015625c-6.183593 0-11.738281 3.800781-13.980469 9.566406l-10.5625 27.160156-26.675781-11.734375c-5.660156-2.492187-12.273437-1.25-16.644531 3.121094l-20.515625 20.519531c-4.375 4.371094-5.617187 10.984375-3.125 16.644532l11.738281 26.675781-27.160156 10.5625c-5.765625 2.246093-9.5625 7.796875-9.5625 13.980469v29.015624c0 6.1875 3.796875 11.738282 9.5625 13.980469l27.164062 10.5625-11.738281 26.675781c-2.488281 5.660157-1.25 12.273438 3.125 16.644532l20.515625 20.519531c4.375 4.375 10.984375 5.617187 16.648438 3.121094l26.675781-11.734375 10.5625 27.160156c2.242187 5.761719 7.792969 9.5625 13.980469 9.5625h29.015625c6.183593 0 11.734375-3.800781 13.976562-9.5625l10.566407-27.164062 26.671874 11.734374C341.390625 340.5 348 339.261719 352.375 334.886719l20.515625-20.515625c4.375-4.375 5.617187-10.988282 3.125-16.648438l-11.738281-26.675781 27.160156-10.5625c5.765625-2.242187 9.566406-7.792969 9.566406-13.980469v-29.015625C401 211.304688 397.203125 205.75 391.4375 203.507812zM371 236.242188l-26.550781 10.328124c-4.085938 1.589844-7.269531 4.882813-8.71875 9.019532-.761719 2.167968-1.640625 4.324218-2.617188 6.414062-1.828125 3.917969-1.878906 8.433594-.140625 12.390625l11.449219 26.019531-6.003906 6.003907-25.695313-11.304688c-4.011718-1.765625-8.597656-1.6875-12.550781.214844-2.175781 1.050781-4.46875 2.007813-6.808594 2.839844-4.105469 1.460937-7.371093 4.632812-8.949219 8.691406L274.25 332.996094h-8.492188l-10.167968-26.136719c-1.578125-4.058594-4.84375-7.230469-8.949219-8.691406-2.335937-.832031-4.628906-1.789063-6.8125-2.839844-3.949219-1.902344-8.535156-1.980469-12.546875-.214844l-25.695312 11.308594-6.003907-6.007813 11.445313-26.015624c1.742187-3.960938 1.691406-8.476563-.140625-12.394532-.972657-2.082031-1.855469-4.242187-2.617188-6.414062-1.449219-4.136719-4.636719-7.429688-8.71875-9.015625L169 236.25v-8.492188L196.007812 217.25c4.003907-1.554688 7.148438-4.757812 8.636719-8.789062.71875-1.949219 1.542969-3.898438 2.445313-5.796876 1.875-3.9375 1.945312-8.496093.1875-12.492187l-11.699219-26.585937 6.007813-6.003907 26.910156 11.839844c3.9375 1.730469 8.429687 1.6875 12.332031-.113281 1.785156-.828125 3.605469-1.578125 5.40625-2.230469 4.0625-1.476563 7.289063-4.632813 8.855469-8.664063L265.753906 131h8.492188l10.664062 27.414062c1.566406 4.03125 4.792969 7.1875 8.855469 8.664063 1.800781.652344 3.617187 1.402344 5.402344 2.226563 3.902343 1.804687 8.394531 1.847656 12.335937.113281l26.910156-11.839844 6.003907 6.003906-11.695313 26.589844c-1.757812 3.992187-1.6875 8.550781.1875 12.488281.902344 1.894532 1.726563 3.847656 2.445313 5.800782 1.488281 4.027343 4.632812 7.226562 8.636719 8.785156L371 227.75zm0 0"/><path d="M270 184.117188c-26.707031 0-48.433594 21.726562-48.433594 48.433593s21.726563 48.4375 48.433594 48.4375 48.4375-21.730469 48.4375-48.4375S296.707031 184.117188 270 184.117188zm0 66.871093c-10.164062 0-18.433594-8.269531-18.433594-18.4375 0-10.164062 8.269532-18.433593 18.433594-18.433593s18.4375 8.269531 18.4375 18.433593c0 10.167969-8.273438 18.4375-18.4375 18.4375zm0 0"/></svg>